<svg width="192" height="87" viewBox="0 0 192 87" fill="none" xmlns="http://www.w3.org/2000/svg">
<path d="M101.371 0H89.0424C86.1306 0 83.7586 2.372 83.7586 5.28374V10.5675H77.8073C77.1965 9.51641 76.0603 8.80623 74.7677 8.80623C72.8218 8.80623 71.2452 10.3828 71.2452 12.3287C71.2452 14.2746 72.8218 15.8512 74.7677 15.8512C76.0745 15.8512 77.2108 15.141 77.8073 14.09H83.7586V29.9554C83.7586 32.8671 86.1306 35.2391 89.0424 35.2391H101.442C108.231 35.2391 113.771 29.6997 113.771 22.8962C113.771 16.0927 108.246 10.5533 101.442 10.5533H87.2811V5.26953C87.2811 4.30369 88.0765 3.50829 89.0424 3.50829H101.371C112.052 3.50829 120.745 12.2151 120.745 22.9104C120.745 33.6057 112.052 42.3125 101.371 42.3125H81.5855C80.8043 39.2729 78.0488 37.0288 74.7677 37.0288C70.8902 37.0288 67.7228 40.1962 67.7228 44.088C67.7228 47.9797 70.8902 51.1471 74.7677 51.1471C78.0488 51.1471 80.8043 48.8888 81.5855 45.8634H101.371C113.998 45.8634 124.253 35.58 124.253 22.9388C124.253 10.2976 113.998 0 101.371 0ZM101.456 14.1042C106.314 14.1042 110.263 18.067 110.263 22.9246C110.263 27.7822 106.314 31.745 101.456 31.745H89.0566C88.0907 31.745 87.2953 30.9496 87.2953 29.9838V14.1184H101.456V14.1042ZM74.7677 47.6105C72.8218 47.6105 71.2452 46.0339 71.2452 44.088C71.2452 42.1421 72.8218 40.5655 74.7677 40.5655C76.7136 40.5655 78.2902 42.1421 78.2902 44.088C78.2902 46.0339 76.7136 47.6105 74.7677 47.6105ZM0 69.1861C0 68.7884 0.312479 68.4759 0.71018 68.4759H7.17282C9.03349 68.4759 10.6811 68.8452 12.1157 69.598C13.536 70.3507 14.6439 71.3876 15.4393 72.7227C16.2347 74.0579 16.6182 75.5777 16.6182 77.2963C16.6182 79.0149 16.2205 80.5347 15.4393 81.8699C14.6439 83.205 13.536 84.2419 12.1157 84.9947C10.6953 85.7474 9.04769 86.1167 7.17282 86.1167H0.71018C0.312479 86.1167 0 85.8043 0 85.4066V69.2003V69.1861ZM7.07339 84.4975C8.62158 84.4975 9.97093 84.1851 11.1214 83.5743C12.2719 82.9635 13.1809 82.1113 13.8201 81.0318C14.4593 79.9524 14.7717 78.7025 14.7717 77.2963C14.7717 75.8901 14.4593 74.6402 13.8201 73.5608C13.1809 72.4813 12.2861 71.6291 11.1214 71.0183C9.95672 70.4076 8.60738 70.0951 7.07339 70.0951H1.86067V84.4975H7.07339ZM23.7626 85.0941C22.3423 84.3129 21.2344 83.2476 20.439 81.8841C19.6436 80.5205 19.2459 79.0007 19.2459 77.2963C19.2459 75.5919 19.6436 74.0721 20.439 72.7085C21.2344 71.345 22.3423 70.2797 23.7626 69.4985C25.183 68.7173 26.7596 68.3338 28.5066 68.3338C30.2537 68.3338 31.8303 68.7173 33.2364 69.4985C34.6426 70.2797 35.7363 71.345 36.5459 72.7085C37.3555 74.0721 37.7532 75.6061 37.7532 77.3105C37.7532 79.0149 37.3555 80.5347 36.5459 81.9125C35.7363 83.276 34.6426 84.3555 33.2364 85.1225C31.8303 85.8895 30.2537 86.2872 28.5066 86.2872C26.7596 86.2872 25.183 85.9037 23.7626 85.1225V85.0941ZM32.2848 83.6595C33.4069 83.0346 34.2875 82.1539 34.9266 81.0461C35.5658 79.924 35.8783 78.6883 35.8783 77.3105C35.8783 75.9328 35.5658 74.6828 34.9266 73.575C34.2875 72.4529 33.4069 71.5865 32.2848 70.9615C31.1627 70.3365 29.8986 70.0241 28.5066 70.0241C27.1147 70.0241 25.8505 70.3365 24.7143 70.9615C23.578 71.5865 22.6973 72.4671 22.044 73.575C21.3906 74.697 21.0781 75.9328 21.0781 77.3105C21.0781 78.6883 21.4048 79.9382 22.044 81.0461C22.6831 82.1681 23.578 83.0346 24.7143 83.6595C25.8505 84.2845 27.1147 84.597 28.5066 84.597C29.8986 84.597 31.1627 84.2845 32.2848 83.6595ZM41.9432 68.4759H43.8039V84.4975H53.6754V86.1167H42.6534C42.2557 86.1167 41.9432 85.8043 41.9432 85.4066V68.4901V68.4759ZM68.6602 70.0951C69.9385 71.1746 70.5777 72.6517 70.5777 74.5266C70.5777 76.4015 69.9385 77.8787 68.6602 78.9439C67.3819 80.0092 65.6206 80.5489 63.3764 80.5489H58.6467V86.1167H56.786V69.2003C56.786 68.8026 57.0985 68.4901 57.4962 68.4901H63.3907C65.6348 68.4901 67.4103 69.0298 68.6744 70.0951H68.6602ZM67.3251 77.765C68.2483 76.998 68.7028 75.9186 68.7028 74.5266C68.7028 73.1347 68.2483 71.9984 67.3251 71.2456C66.4018 70.4786 65.0667 70.0951 63.3196 70.0951H58.6324V78.9155H63.3196C65.0667 78.9155 66.4018 78.532 67.3251 77.765ZM89.3406 68.4759V86.1025H87.5084V77.9639H76.4722V86.1025H74.6115V68.4759H76.4722V76.3305H87.5084V68.4759H89.3406ZM104.624 85.1083C103.218 84.3413 102.124 83.2618 101.328 81.8983C100.533 80.5347 100.135 79.0007 100.135 77.2963C100.135 75.5919 100.533 74.0721 101.328 72.6943C102.124 71.3308 103.232 70.2513 104.638 69.4843C106.044 68.7173 107.621 68.3196 109.368 68.3196C110.674 68.3196 111.882 68.5327 112.99 68.973C114.098 69.4133 115.035 70.0525 115.816 70.8905L114.637 72.0694C113.259 70.6774 111.527 69.9815 109.425 69.9815C108.033 69.9815 106.768 70.2939 105.618 70.9331C104.482 71.5723 103.587 72.4387 102.933 73.5466C102.28 74.6544 101.968 75.9044 101.968 77.2679C101.968 78.6314 102.294 79.8814 102.933 80.9892C103.573 82.0971 104.467 82.9777 105.618 83.6027C106.754 84.2419 108.033 84.5543 109.425 84.5543C111.541 84.5543 113.274 83.8442 114.637 82.438L115.816 83.6169C115.049 84.4549 114.098 85.0941 112.975 85.5486C111.853 86.0031 110.646 86.2162 109.339 86.2162C107.592 86.2162 106.016 85.8327 104.609 85.0515L104.624 85.1083ZM119.793 68.4759H121.654V84.4975H131.525V86.1167H120.503C120.106 86.1167 119.793 85.8043 119.793 85.4066V68.4901V68.4759ZM137.235 85.0941C135.815 84.3129 134.707 83.2476 133.912 81.8841C133.116 80.5205 132.718 79.0007 132.718 77.2963C132.718 75.5919 133.116 74.0721 133.912 72.7085C134.707 71.345 135.815 70.2797 137.235 69.4985C138.656 68.7173 140.232 68.3338 141.979 68.3338C143.726 68.3338 145.303 68.7173 146.709 69.4985C148.115 70.2797 149.209 71.345 150.018 72.7085C150.828 74.0721 151.226 75.6061 151.226 77.3105C151.226 79.0149 150.828 80.5347 150.018 81.9125C149.209 83.276 148.115 84.3555 146.709 85.1225C145.303 85.8895 143.726 86.2872 141.979 86.2872C140.232 86.2872 138.656 85.9037 137.235 85.1225V85.0941ZM145.772 83.6595C146.894 83.0346 147.774 82.1539 148.413 81.0461C149.053 79.924 149.365 78.6883 149.365 77.3105C149.365 75.9328 149.053 74.6828 148.413 73.575C147.774 72.4529 146.894 71.5865 145.772 70.9615C144.649 70.3365 143.385 70.0241 141.993 70.0241C140.601 70.0241 139.337 70.3365 138.201 70.9615C137.065 71.5865 136.184 72.4671 135.531 73.575C134.877 74.697 134.565 75.9328 134.565 77.3105C134.565 78.6883 134.892 79.9382 135.531 81.0461C136.17 82.1681 137.065 83.0346 138.201 83.6595C139.337 84.2845 140.601 84.597 141.993 84.597C143.385 84.597 144.649 84.2845 145.772 83.6595ZM157.177 84.2987C155.899 82.992 155.26 81.0887 155.26 78.5746V68.4759H157.12V78.5036C157.12 80.5489 157.575 82.0829 158.512 83.0914C159.435 84.0998 160.771 84.597 162.518 84.597C164.265 84.597 165.628 84.0998 166.551 83.0914C167.475 82.0829 167.943 80.5489 167.943 78.5036V68.4759H169.761V78.5746C169.761 81.0745 169.122 82.9777 167.858 84.2987C166.594 85.6054 164.819 86.2588 162.532 86.2588C160.245 86.2588 158.47 85.6054 157.191 84.2987H157.177ZM175.358 69.1861C175.358 68.7884 175.67 68.4759 176.068 68.4759H182.53C184.391 68.4759 186.039 68.8452 187.473 69.598C188.894 70.3507 190.002 71.3876 190.797 72.7227C191.592 74.0579 191.976 75.5777 191.976 77.2963C191.976 79.0149 191.578 80.5347 190.797 81.8699C190.002 83.205 188.894 84.2419 187.473 84.9947C186.053 85.7474 184.405 86.1167 182.53 86.1167H176.068C175.67 86.1167 175.358 85.8043 175.358 85.4066V69.2003V69.1861ZM182.445 84.4975C183.993 84.4975 185.343 84.1851 186.493 83.5743C187.644 82.9635 188.553 82.1113 189.192 81.0318C189.831 79.9524 190.144 78.7025 190.144 77.2963C190.144 75.8901 189.831 74.6402 189.192 73.5608C188.553 72.4813 187.658 71.6291 186.493 71.0183C185.329 70.4076 183.979 70.0951 182.445 70.0951H177.232V84.4975H182.445Z" fill="#1D2025"/>
</svg>
